<?xml version="1.0" encoding="UTF-8"?>
<svg id="Layer_1" data-name="Layer 1" xmlns="http://www.w3.org/2000/svg" viewBox="0 0 848.19 759.47">
  <defs>
    <style>
      .cls-1 {
        fill: #d3393a;
      }

      .cls-2 {
        fill: #fecc19;
      }
    </style>
  </defs>
  <path class="cls-1" d="M529.99,2.03c2.56,1.9,49.98-.72,63.44,3.06,77.31,21.72,91.52,128.02,22.48,170.36l-16.91,9.06c4.67,2.84,9.92,4.63,14.66,7.34,126.85,72.69,86.75,259.3-56.12,275.22l-294.04-.04.5-2.01,4.93-2.55c30.8-34.98,60.89-70.21,91.67-105.34,38.65-44.11,79.12-88.29,117.44-133.57,1.11-1.31.81-3.75,1.93-5.07,13-15.4,27.44-29.71,40.03-45.47h-83L529.99,2.03Z"/>
  <path class="cls-2" d="M263.99,465.03l61-164h-142L321.2.24,529.36.01c1.27-.19.35,1.81.63,2.02l-93,171h83c-12.6,15.75-25.15,31.3-38.14,46.7-1.12,1.33-2.71,2.53-3.82,3.84-38.32,45.28-78.79,89.46-117.44,133.57-30.79,35.13-60.87,70.36-91.67,105.34l-4.93,2.55Z"/>
  <path class="cls-1" d="M204.99,564.03c-2.75,6.72-7.9,55.03-10.1,56.89-.9.76-10.64-.33-12.9.11l3.99-26c-5.74,4.69-10.35,20.48-15.02,24.47-2.17,1.85-13.13,2.37-14.08.95-2.87-4.26-3.44-19.83-5.9-25.41-1.54-.02-1.4,3.52-1.65,4.82-.57,2.96-2.61,20.37-3.38,21.12-.51.49-13.35.65-13.72-1.41l9.78-55.53,15.94.04,8.06,39.95,22.99-40h16Z"/>
  <path class="cls-1" d="M538.99,621.03l10.05-56.95c3.31.44,13.68-1.23,15.47.93l10.98,31.03c1.9-.04,4.79-30.7,6.63-31.88,1.48-.95,10.26.41,12.87-.13l-1.01,10c3.62.35,24.83-2.23,26.01-.99.24.25-.16,3.02,0,3.99-4.76.52-24.05-3.65-26.56-.05-.97,1.39-.29,4.33-.44,6.06,8.14-.46,16.37-1.45,24.5-2.02,3.16-.22.62,4.98-.13,5.09-3.42-.63-23.97-3.07-25.27-1.96-.42.36-1.5,7.48-1.1,7.89,3.07-.44,24.99-3.05,26-1.99.14.14.14,3.84,0,3.99-1.3,1.37-23.2-1.75-26.96-.94l-2.05,15.95c3.65.75,24.74-2.33,26.01-1,.14.14.14,3.85,0,3.99-1.02,1.07-22.95-1.79-26.41-2.07l-1.6,8.07,27-2c.71,6.03-9.75,4.16-14.53,4.04-8.17-.21-8.23-.05-15.91,1.01-1.62.22-12.93.27-13.44-.17-1.05-.93-7.13-22.64-8.88-26.62-.46-1.05-1.03-2.64-2.23-1.27-1.39,1.59-3.11,24.13-5.01,28h-14Z"/>
  <path class="cls-1" d="M502.99,586.03c.24-3.4,2.33-21.42,3.94-22.56.99-.7,9.85-.75,11.62-.52,1.91.24.95,1.91,2.87,2.16,4.34.56,23.36-2.35,24.57-1.6,1.51.93.81,2.72.04,3.83-3.68,5.28-30.21-8.77-27.05,6.69l26-1.99v3.99c-9,1.25-18.08,1.11-26.99-.99l-1.01,7.99c.93.87,21.1-2.02,24.47-2.03,4.88-.02,1.49,3.92.84,4.07-2.86.69-13.08.1-16.86,0-2.46-.06-5.78-1.56-7.8-1.11-1.3.29-2.17,4.84-1.24,6.14,2.17,3.02,20.66-1.06,25.07-.07,1.67,2.85-.22,3.73-2.94,4.06-3.87.47-21.94-2.51-23.51-1l-3.06,15.44c-.07,1.76,24.71-1.55,27.01-.48l-1.68,4.04-23.73-1.87c-2.32.52-2.9,5.83-2.59,7.83,8.63-.06,17.63-.5,25.99-2v4c-13.42-.66-26.57-.9-39.99,0l3-22h-19c-.75,2.88-3.14,21.23-4.14,21.86-1.54.97-10.24-.42-12.86.13l9.17-54.33c1.06-3.21,10.85-1.07,13.84-1.66l-3,22h19Z"/>
  <path class="cls-1" d="M751.99,598.03c-.34.37-.37,8.33-1,10h48.01c-.17.98.24,3.74,0,4-.9.95-22.75-1.33-26-2l-1.99,7.52c8.52,1.06,16.84-.97,25.5-.52,2.27.12,1.49.48,1.47,2.49l-62.99,1.51c1.64-19.45,7.9-38.51,9-58.01,10.37,1.1,23.55-1.44,33.56-.05,2.49.35,3.77,1.78,6.88,2.12,7.52.83,15.04-1.88,22.58-1.07v3.99s-23.55-1.81-23.55-1.81c-5.21,0-3.21,3.98-3.46,7.82l24.45-1.95c.97.68,1.43.96,1.39,2.27-.22,6-14.1.93-18.3.65-9.53-.63-20.96,2.47-30.93.97-1.45.39-1.82,8.39-1.61,10.06h18l-1,12c-2.71.55-19.32-.73-20,0Z"/>
  <path class="cls-1" d="M29.99,621.03l10.61-57.06c8.42.84,18.44-1.05,26.64.3,8.05,1.32,8.81,9.44,7.06,16.58-.89,3.63-5.28,8.17-5.28,8.68s5.06,4.19,5.76,7.21c2.01,8.74-3.11,19.85-11.76,22.81-.69.24-6.19,1.48-6.52,1.48h-26.5ZM50,586.03c3.59-2.16,9.98.98,10.98-4.55.67-3.69.11-5.06-3.45-5.51-7.92-1-7.05,3.62-7.53,10.06ZM45.99,609.04c7.03.76,17.59.33,16.02-9.45-.76-4.71-11.18-6-13.78-3.32-1.06,1.09-2.91,12.09-2.23,12.77Z"/>
  <path class="cls-1" d="M837.18,598.22c-1.43,2.44,5.87,18.58,4.82,22.81-3.35-.54-11.31,1.2-13.53-.97-2.04-2-1.84-14.7-4.36-18.44-.79-1.17-6.76-.98-7.68.36-1.17,1.71-1.55,13.25-2.67,16.33-1.94,5.34-9.56,1.32-13.77,1.73l10.14-55.86c8.66.89,24.28-2.45,31.56,1.66,9.52,5.38,7.21,19.53,1.73,27.13-1.56,2.17-6.05,4.9-6.25,5.25ZM819,589.03c17.46,3.92,22.77-16.54,2.04-12.94l-2.04,12.94Z"/>
  <path class="cls-1" d="M712.99,564.03c-7.58,9.35-17.83,16.75-24.84,26.32.14,1.57,14.5,26.37,15.85,27.18,3.9,2.35,23.45-1.11,28.99-1.49.33.37-.43,3.78-.89,4.41-1.22,1.67-21.94-2.45-26.42-1.39-.81.19-.27,1.81-2.12,2.05-2.05.27-12.38.27-13.91-.24-1.82-.6-10.09-16.91-11.67-19.84-6.8,3.88-5.44,13.26-7.03,19.95-2.81-.33-12.1,1.08-13.53-.9-1.64-2.26,9.43-48.24,9.02-55.11,1.34-1.99,10.76-.47,13.57-.93,1.34,1.36-4.16,17.87-2.51,20.99,3.17-2.02,19.52-21,21-21h14.5Z"/>
  <path class="cls-1" d="M372.99,563.03l-1.93,12.57c-3.43,1.49-21.65-.58-22.97.54-.45.38-1.45,8.32-2.1,9.9h19c.17,2.29-.25,10.37-1.94,11.56-2.42,1.7-17.6-.6-18.95.55-.97.83-1.26,9.01-1.11,10.89h22l-2,12h-36l10.5-58h35.5Z"/>
  <path class="cls-1" d="M471,564.04c.14.14.14,3.84,0,3.99-.91.95-21.25-2.29-26.3-.79-2.74.81-8.1,9.16-10.34,9.6-1.24.24-4.62-1.65-6.88-1.83-17.35-1.4-22.82,28.74-12.23,33.28,6.42,2.75,15.02-1.66,15.67-1.2.43.3,4.85,7.86,5.4,8.97.41.82-.42,1.92-.33,1.97,1.93,1.12,22.3-1.52,25.99-1.99.2.26-.94,4.69-1.13,4.86-2.05,1.81-20.64-2.22-25.4-1.9-9.91.67-14.52,5.18-26.2,1.28-19.85-6.63-14.55-39.01-1.18-49.66,13.54-10.78,21.6-6.63,36.38-5.55,4.07.3,25.62-1.99,26.54-1.03Z"/>
  <path class="cls-1" d="M306.49,564.03c2.93.82-.56,7.88-.5,9.99l26.99-1.99c-.31,4.25-.19,5.19-4.47,5.05-6.03-.2-14.1-2.03-20.03-2.06-4.73-.02-11.12,1.92-16.37,1.13-2.58,5.63-6.53,42.72-9.1,44.41-2.22,1.46-9.94-.09-13.03.46l7.99-44.99h-13s2-12.01,2-12.01h39.5Z"/>
  <path class="cls-1" d="M638.23,564.7c4.58,1.95,24.35-2.15,25.77-.66.14.14.14,3.84,0,3.99-.93.98-23.4-2.35-26.99-.98l-2.01,15.99,25.49-2.01c1.34.17.62,5.52-1.89,4.96-5.06-.76-11.06-1.63-16.1-1.94-7.76-.48-9.31-.58-8.49,7.99l25.49-2.01c3.01,5.29-10.21,4.49-13.99,4.44-3.02-.04-9.47-1.98-11.49-.97-1.76.87-3.29,10.48-3.74,13.31-.59,3.68-1.01,7.51-1.27,11.23,8.25.06,16.2-1.44,24.52-1,2.88.15,2.28,3.73-1.51,3.58-6.57-.25-16.62-2.47-22.58-1.66-1.85.25-1.31,1.86-2.12,2.05-2.23.52-13.05,1.03-13.11-2.23l9.69-54.16,13.68-1.47c.47-.02.37,1.42.67,1.55Z"/>
  <path class="cls-1" d="M310.69,728.35c6.92,6.27,6.23,28.04-4.4,30.47-20.58,4.71-19.77-29.78-7.58-32.57,3.42-.78,9.31-.33,11.98,2.1ZM301.68,733.13c-5.13,1.29-4.73,18.94.81,18.96,6.57.02,6.21-20.73-.81-18.96Z"/>
  <path class="cls-1" d="M440.23,728.27c1.86-1.85,9.56-2.68,12.22-2.18,11.24,2.11,11.68,27.39,2.82,31.72-12.78,6.24-18.96-6.28-18.31-17.31.14-2.29,1.97-10.93,3.27-12.23ZM447.17,751.83c7.41,4.2,8.93-18.2,2.3-18.87s-5.15,17.25-2.3,18.87Z"/>
  <path class="cls-1" d="M498.99,726.03v7h-14c-.21,0-1.14,3.85-1,3.99,10.84-3.36,18.67,3.22,14.93,14.45s-22.43,9.99-22.94-2.44c5.65-2.63,15.48,8.05,16.08-1.5.6-9.58-10.73-.49-16.08-2.51l3-18.99h20Z"/>
  <path class="cls-1" d="M539.71,726.25c7.86-1.79,14.44,1.51,13.26,10.21-.21,1.56-1.76,3.42-1.71,4.08.08,1.13,2.98,2.38,3.53,4.19,5.62,18.57-27.05,19.61-22.59,1,.48-2,2.61-3.32,2.69-5.14.22-4.58-3.56-12.44,4.81-14.34ZM541.64,732.16c-3.54,1.18-1.17,7.72,2.66,6.76,4.16-1.04,3.88-8.95-2.66-6.76ZM546.85,745.18c-1.9-3.01-9.95-.19-7.4,4.84,2.68,5.29,10.74.46,7.4-4.84Z"/>
  <path class="cls-1" d="M502.99,752.03c-3.73-3.77,10.96-21.16,12.16-25.84l10.85-.17c.62.62-.43,14.8-.08,17.57.24,1.9,1.86.93,2.15,2.87.86,5.79-1.88,5.53-2.05,6.25-.36,1.53.32,5.98-.02,6.32-.28.28-7.73.28-8.01,0-.34-.34.24-5.64,0-7.01h-15ZM518,745.04c-.06-2.49.09-5.02,0-7.52-.05-1.21.75-3.72-.99-3.48l-6.01,10.98,7,.02Z"/>
  <path class="cls-1" d="M361,759.03l5.99-9.98c-9.18-1.5-14.12-13.64-6.51-20.02,9.02-7.56,24.25-.68,21.04,11.04-.52,1.92-10.55,17.01-11.96,18.04-2.36,1.72-5.76.73-8.57.92ZM366.63,733.17c-3.33,1.12-2.23,10.32,3.64,8.72s4.3-11.39-3.64-8.72Z"/>
  <path class="cls-1" d="M209.99,676.03v-15c-4.76,1.89-2.2,18.18-9.06,13.55-1.82-1.23-5.02-20.21-4.94.45h-5.01v-22.01c10.59-.79,8.74-.15,11.74,7.8.41,1.09-.32,2.83,1.75,2.2,1.13-.34,1.6-9.31,3.47-10.55,1.38-.91,7.62-.94,8.6.47.64.92.84,19.76.3,21.42-.82,2.5-4.71,1.52-6.86,1.64Z"/>
  <path class="cls-1" d="M558.99,759.03c-4.23-7.74,16.24-19.97,12.08-25.39-2.5-3.26-5.31,2.29-5.78,2.41-2.37.61-7.64.74-6.92-3.06,2-10.54,25.51-10.8,20.16,7.09-1.07,3.56-8.51,9.78-8.52,10.45-.05,2.2,8.22,1.42,9.98,1.49v7.01h-21Z"/>
  <path class="cls-1" d="M318.99,749.04c2.3.25,5.14-.45,7.31.02.37.08,3.55,5.43,6.22,1,3.51-5.81-5.43-4.82-5.55-5.59.3-1.35-.39-5.96.07-6.4.3-.29,5.63.46,4.95-2.53-.97-4.26-5.24-.81-7.44-.45-1.1.18-5.95.85-5.45-1.44,2.56-11.8,22.33-10.11,19.88,2.82-.28,1.5-2.05,2.85-1.88,3.91.19,1.13,3.36,2.84,3.86,6.22,2.17,14.65-21.83,18.02-21.96,2.43Z"/>
  <path class="cls-1" d="M76.99,653.03c1.91.38,9.1-.59,9.9.1.59.51.99,8.43,4.09,8.9.65-1.41,1.76-8.6,2.11-8.9.8-.69,7.99.28,9.9-.1v22h-6.01c-.98-.96,1.98-11.77-1.98-13-.82,1.78-2.57,12.49-3.06,12.95-.22.2-4.48.25-4.85-.06-.45-.37-2.56-9.12-3.36-11.14-.42-1.07-.29-2.98-1.74-2.75v14h-5v-22Z"/>
  <path class="cls-1" d="M126,663.03c2.94,3.05,2.75-9.51,3.57-10.11,6.87-5.03,7.54,6.6,8.43,11.1l3.92-11.56c1.37-.98,4.58-.64,4.98,1.15.24,1.11-4.91,21.33-5.84,21.98-.87.6-5.63.76-6.01.39-.44-.42-1.7-10.2-2.05-11.95-2.64-.24-1.62-.06-1.98,1.5s-1.19,8.77-2.15,9.37c-.61.39-5.09.38-5.73-.01-1-.62-6.5-21.51-5.14-22.86,8.53-2.72,6.24,9.17,8.01,11.01Z"/>
  <path class="cls-1" d="M404.07,740.96c.05.09,1.45-.02,1.92.78,9.95,16.8-18.76,25.85-20,7.3,2.3.25,5.15-.45,7.31.02.7.15,1.41,3.32,4.05,2.8,1.63-.32,2.87-2.65,2.72-4.31-.33-3.75-6.72-2.66-7.13-4.13-2.23-7.98,8.57-1.63,6.06-10.39-4.96-.75-6.28,3.55-12.01,2-2.22-10.08,15-12.33,18.25-4.75,2.32,5.41-1.57,10.04-1.17,10.68Z"/>
  <path class="cls-1" d="M41.99,654.53c.74-4.56,4.12-1.54,6.61-1.59,5.84-.11,14.73-2.45,13.2,7.37-.37,2.35-3.42,3.2-2.8,3.7,1.88,1.55,4.13.91,4.07,5.55-.12,8.98-21.07,7.12-21.07,4.97,0-5.72-.84-14.84,0-20ZM49,662.04c8.65.63,9.79-6.3,0-5.01v5.01ZM48.99,671.04c9.61,1.33,9.58-6.34,0-5.01v5.01Z"/>
  <path class="cls-1" d="M433.99,726.03c-.04,2.69.34,5.39-.45,8.05-.59,1.97-9.83,19.39-11.35,21.64-2.47,3.65-4.06,3.97-8.71,3.31-1.14-.16-2.02.41-1.46-1.47.81-2.73,14.01-23.61,12.97-24.53h-13s0-7.01,0-7.01h22Z"/>
  <path class="cls-1" d="M262.99,653.53c.83-2.67,16.96-1.28,19.06,1.2,5.16,6.12-1.97,9.02-2.04,11.77-.06,2.51,4.15,6.14,2.98,9.52-2.22.1-5.31.13-6.98-1.51-2.26-2.21-1.73-9.73-6.03-6.91-.26,2.14.85,6.69-.95,8-.26.19-6.03-.27-6.03-.58,0-4.38-.89-18.62,0-21.5ZM270,662.04c8.17,1.12,8.3-6.1,0-5.01v5.01Z"/>
  <path class="cls-1" d="M364.99,652.03c9.97-.65,21.2-.24,21.09,12.5-.13,14.46-21.09,12.35-21.09,10v-22.5ZM371.99,671.03c9.46,1.02,9.53-14.98,0-14v14Z"/>
  <path class="cls-1" d="M758.99,657.01c-3.57,1.92-5.02,2.11-8.99,1.03,3.74,3.66,12.11,3.55,10.62,11.02-2.16,10.8-21.15,7.87-19.51,1.67,1.37-5.17,6.52.11,9.89-.7.53-2.87-.75-1.63-2.2-2.24-4.87-2.07-9.05-3.47-7.59-10.03,2.29-10.26,20.6-4.74,17.79-.74Z"/>
  <path class="cls-1" d="M247.49,652.03c1.73.52,2.26,4.37.55,5.55s-5.89.14-8.05.45v2.99c6.36-.66,5.09.25,5.01,6.01-.8.81-7.12-1.84-6.01,1.99,2.38.25,8.26.37,10.03,1.49,1.21.76.25,5.52-.03,5.52h-16.5c-.11,0-1.5-1.39-1.5-1.5v-21c0-.11,1.39-1.5,1.5-1.5,3.34,0,12.71-.69,15,0Z"/>
  <path class="cls-1" d="M349.49,652.03c1.57.47,2.08,3.66,1.07,5.07-1.44,2.02-7.22-.38-8.56,2.44-1.16,2.44,3.43.84,4.57,2.41.72.99.71,3.14,0,4.15-1.48,2.09-5.95-.66-5.56,2.41,1.48,2.93,9.31.81,9.99,1.51v6.01h-16.5c-.11,0-1.5-1.39-1.5-1.5v-21c0-.11,1.39-1.5,1.5-1.5,3.33,0,12.73-.69,15,0Z"/>
  <path class="cls-1" d="M442,658.04c4.86,4.63,13.34,4.25,9.24,13.74-3.43,7.95-22.2,4-17.31-2.32,2.41-3.11,6.24,1.9,10.06.56l-8.5-4.99c-4.71-3.09-2.54-11,2.45-12.55,12.38-3.86,17.83,8.33,4.05,5.56Z"/>
  <path class="cls-1" d="M399.99,654.53c1-3.32,16.35-3.3,17.57-1.57,3.96,5.58-6.28,5.64-9.58,5.08v2.99s6.01,0,6.01,0c-.21,1.34.36,3.26.05,4.38-.5,1.86-8.02-.07-6.06,4.62h10.01s0,6,0,6h-15.5c-.33,0-1.52-1.32-2.5-1,.99-5.28-1.34-16.03,0-20.5Z"/>
  <path class="cls-1" d="M505,658.04c1.88,3.17,8.66,2.93,9.8,6.68,3.79,12.4-13.75,15.23-19.78,6.81,2.03-5.99,12.02,2.52,12.98-2.01.79-3.74-10.18-1.8-11.78-7.2-1.13-3.82-.15-7.29,3.52-9.06,12-5.77,21.91,7.89,5.27,4.78Z"/>
  <path class="cls-1" d="M580.85,653.18c.61,1.01-.06,3.49.15,4.86h-10.01s0,2.99,0,2.99h6.01c-.21,1.47.69,4.25-.58,5.12-2.47,1.7-6.66-.92-5.43,3.88h10.01c4.07,8.44-14.71,6.83-16.77,4.77-2.37-2.37-1.13-17.77-.77-21.84.74-1.21,16.38-1.45,17.4.22Z"/>
  <path class="cls-1" d="M318,661.03c-3.53,3.53-14.17-11.19-12.04,5.56,1.14,8.96,7.56-2.37,11.6,1.41,4.48,6.2-16.43,14.32-19.32.31-3.58-17.36,17.03-23.7,19.77-7.28Z"/>
  <path class="cls-1" d="M613.72,654.31c.84.85,2.93,6.11,2.28,6.72-1.94-.27-4.55.46-6.3.03-1.3-.32-.97-3.91-4.12-2.96-3.54,1.94-3.41,10.71.09,11.84,2.36.76,10.76-6.55,10.22-.55-.67,7.42-14.35,10.09-18.92,1.2-6.91-13.46,8.71-24.34,16.76-16.26Z"/>
  <path class="cls-1" d="M667.29,674.73c-1.35-.84-1.63-4.18-5.76-3.72-1.29.14-8.16,8.63-9.49,3.44-.3-1.18,6.49-20.74,7.71-21.4,1.3-.71,4.9-1.4,6.26-.56,1.11.69,8.32,20.5,7.95,21.96-.55,2.18-5.35,1.1-6.67.28ZM663.99,666.03c.28-.28-.09-6.14-1.98-5.99l-2.01,5.98h3.99Z"/>
  <path class="cls-1" d="M817,658.04c2.95,4.3,8.7,2.16,10.37,8.21,2.98,10.84-14.99,13.1-20.35,5.28,1.88-5.92,12.92,3.01,13.98-2.01.73-3.47-10.38-2.45-11.81-7.19-3.66-12.12,16.7-11.11,15.76-5.92-.65,3.58-5.58,1.71-7.94,1.64Z"/>
  <path class="cls-1" d="M545.49,653.03c3.68,1.01,4.49,8.29,2.58,11.33-2.16,3.43-10.66,2.26-11.08,2.67-1.34,1.29,3.7,11.13-6.99,9v-23c4.22.74,11.82-1.01,15.5,0ZM541.89,661.94c2.22-3.31-2.61-6.14-5.9-4.91v6.01c.38.38,5.54-.57,5.9-1.1Z"/>
  <path class="cls-1" d="M694.99,653.03v15.5c0,3.3,10.11-1.39,10.07,5.01-.02,3.31-11.16,2.9-13.54,2.46-5.13-.96-3.9-12.97-3.57-17.52.43-6.04.95-5.89,7.05-5.46Z"/>
  <path class="cls-1" d="M793.99,653.03c.14.14.09,3.76-.07,3.93-.21.22-5.93.68-5.93,1.07v17h-7v-16.5c0-2.03-5.77-1.29-6-1.51-.14-.14-.2-3.99,0-3.99,2.63,0,18.34-.69,19,0Z"/>
  <path class="cls-1" d="M132,612.04l-27-2.01-1,7.99c8.17.09,16.42-.76,24.5-2.02,3.4.33,3.56,4.6-.04,5.08l-22.99-2.13c-4.67-.48-8.1,5.56-11.94,1.04-3.39-3.98-.5-9.4,4-10.96,11.48.73,23.11-.24,34.45-1.99v5Z"/>
  <path class="cls-1" d="M637.99,652.03v22.5c0,2.09-8,2.1-8,0v-19c0-4.83,4.44-3.48,8-3.5Z"/>
  <path class="cls-1" d="M725.99,676.03h-7v-22.5c0-2.04,7-2.04,7,0v22.5Z"/>
  <path class="cls-1" d="M402.99,572.04l-2.67,5.03c-9.06-1.55-18.44-.14-27.32-2.06l29.99-2.98Z"/>
  <path class="cls-1" d="M802.99,590.04c-.73,1.12-.85,3.18-1.5,3.99-2.81,3.53-22.32-2.56-27.5-1.01l8.51-1.98,20.49-1Z"/>
  <path class="cls-1" d="M329.99,590.04l-1.68,4.03-28.31-1.05c.45-1.49,5.17-1.88,6.51-1.98,7.7-.57,15.75-.23,23.48-1.01Z"/>
  <path class="cls-1" d="M466.99,590.04c.39.35-.69,3.79-1.68,4.03-5.07,1.25-13.64-.91-18.82-1.13-2.93-.12-6.14,2.65-8.5-.42,9.42-1.98,19.34-1.98,28.99-2.49Z"/>
  <path class="cls-1" d="M34.99,581.04c.74.76-.12,5.53-2.52,5.05l-26.47-2.06,11.51-1.98c2.78,1.28,16.87-1.63,17.48-1.01Z"/>
  <path class="cls-1" d="M468,581.04c-.06,1.28.33,2.94-.44,4.06-2.09,3.04-22.85-2.67-27.56-1.07l10.5-1.98,17.49-1Z"/>
  <path class="cls-1" d="M411.99,564.04c-.28,1.09-1.68,2.39-2.63,2.86-5.44,2.73-19.8-.52-26.36-.88l16.5-1.98h12.49Z"/>
  <path class="cls-1" d="M736,599.04v3.99c-8.78,1.42-16.18-1.8-25-1-1.62-1.24.02-1.81,1.48-2,7.14-.91,16.2-.51,23.52-.99Z"/>
  <polygon class="cls-1" points="331 581.03 330.99 586.03 303 584.02 313.5 582.04 331 581.03"/>
  <path class="cls-1" d="M274.99,581.03c.75,9.03-2.44,4.25-6.44,3.95-7.4-.55-15.13-.57-22.55-.96l11.51-1.98,17.48-1.01Z"/>
  <path class="cls-1" d="M394.99,590.04l-1.68,4.03-27.31-1.54c9.42-2.08,19.34-1.74,28.99-2.49Z"/>
  <path class="cls-1" d="M397.99,581.04c-.8,1.37-1.04,4.44-2.62,4.92-1.22.37-15.02-1.72-17.89-1.92-3.48-.24-7.01.15-10.48-.02-.23-1.74,2.26-.94,3.48-.99,9.21-.41,18.33-1.46,27.51-1.99Z"/>
  <path class="cls-1" d="M469.99,572.04c-.05,1.27.33,2.95-.43,4.05-1.66,2.41-23.11-2.02-27.56-1.07l11.51-1.98c5.56,0,11.06.31,16.48-1.01Z"/>
  <path class="cls-1" d="M463,608.04c.14.14.14,3.85,0,3.99-1.07,1.12-22.59-1.25-26-2.01-.24-1.74,2.27-.95,3.48-.99,2.93-.1,21.74-1.81,22.52-.99Z"/>
  <path class="cls-1" d="M324.99,617.03c.26,2.07-.04,3.82-2.4,3.95l-25.59-1.96,6.5-1.99h21.5Z"/>
  <path class="cls-1" d="M273,590.03v5c-8.91-1.38-18-2.1-27-2.01.46-1.49,5.15-1.87,6.51-1.98,6.72-.53,13.75-.29,20.49-1.02Z"/>
  <path class="cls-1" d="M394.84,608.19c.35.22,1.51,3.51,1.15,3.84l-28.99-2,16.51-1.98c1.99-.09,10.46-.39,11.33.15Z"/>
  <path class="cls-1" d="M656.99,607.04c-.21,1.14-.7,4.8-1.61,5.05-4.45,1.24-18.84-2.15-24.37-2.07.48-1.43,5.21-1.48,6.67-1.6,6.19-.49,13.08.38,19.32-1.38Z"/>
  <path class="cls-1" d="M739,581.04c.48.49.07,4.68-1.62,4.92l-26.37-1.94,11.5-1.98c2.52,1.02,15.79-1.72,16.49-1Z"/>
  <path class="cls-1" d="M270,608.04c.14.14.14,3.84,0,3.99-.94.98-23.5-2.33-27-2l12.51-1.98c2.18.34,13.99-.53,14.49,0Z"/>
  <path class="cls-1" d="M271.99,599.04c0,1.07.28,2.07-.44,3.05-2.13,2.93-18.39-.68-22.55-.06-1.58-1.18-.02-1.82,1.47-2,6.88-.81,14.57-.94,21.52-.99Z"/>
  <path class="cls-1" d="M737.99,590.04c.38.35-.68,3.79-1.68,4.03-7.57,1.86-20.09-2.58-28.31-1.05l10.51-1.98,19.48-1.01Z"/>
  <path class="cls-1" d="M135,590.04c.14.14.14,3.84,0,3.99-1.23,1.29-24.2-2.02-28-1.01l8.51-1.98c2.89,1.06,18.57-1.97,19.49-1Z"/>
  <path class="cls-1" d="M402.99,619.05c.11.13.37,2.11-.51,2l-30.49-2.52,26.39-2.26c.7,1.2,4.44,2.58,4.61,2.78Z"/>
  <path class="cls-1" d="M326,608.04c-.17.97.24,3.73,0,3.99-.97,1.02-24.44-2.12-28-2-.23-1.75,2.27-.94,3.49-.99l24.51-1Z"/>
  <path class="cls-1" d="M137.99,572.04c-.05,1.27.33,2.95-.43,4.05-1.66,2.41-23.11-2.02-27.56-1.07l27.99-2.99Z"/>
  <path class="cls-1" d="M31,599.04c.14.14.14,3.84,0,3.99-.95.99-12.83-1.06-15.52-1.07-4.08-.03-9.71,3.48-8.49-1.92,3.23,1.14,23.16-1.89,24.01-1Z"/>
  <path class="cls-1" d="M136.99,581.04c.39.38.14,2.75-.97,3.52-3.68,2.53-21.62-1.43-27.02-.53l9.51-1.98c2.8,1.22,17.82-1.65,18.48-1.01Z"/>
  <path class="cls-1" d="M264,564.04c.14.14.14,3.84,0,3.99-.86.91-21.88-1.72-25-2l12.5-1.98c1.95.28,12.06-.46,12.49,0Z"/>
  <path class="cls-1" d="M638,575.02l21.8-2.78c3.29-.95,4.65,3.64,1.53,4.63-4.16,1.33-18.01-2.28-23.33-1.85Z"/>
  <path class="cls-1" d="M615.99,599.04c.39.35-.68,3.79-1.68,4.03-5.77,1.42-16.69-2.66-23.31-1.04-1.65-1.26.1-1.82,1.48-2,7.05-.91,16.23-.33,23.51-.99Z"/>
  <path class="cls-1" d="M29.99,608.04c-.19,6.94-5.98,3.08-10.45,2.95-5.5-.15-11.04.2-16.54.04-1.65-1.25.1-1.82,1.48-2,7.61-.97,17.61-.12,25.51-.99Z"/>
  <path class="cls-1" d="M33,590.04c-.16.97.24,3.73,0,3.99-1.26,1.32-21.45-1.8-25-1.01.38-1.82,1.97-1.86,3.46-2.03,6.62-.75,14.64.29,21.54-.96Z"/>
  <path class="cls-1" d="M803.99,581.04v3.99s-27.99-1.01-27.99-1.01l9.5-1.98c6.18-.38,12.5.85,18.48-1.01Z"/>
  <path class="cls-1" d="M327.99,599.04c.28,2.41-.02,3.53-2.49,3.99-2.98-.86-20.78-.21-21.5-1.01-1.35-1.5.07-1.81,1.48-1.99,6.8-.87,15.52-.45,22.51-.99Z"/>
  <path class="cls-1" d="M739.99,577.04c-6.1-1.28-12.35-.55-18.48-1.02-1.34-.1-6.05-.49-6.51-1.98,8.23-.88,17.07-.36,24.99-2.01v5Z"/>
  <path class="cls-1" d="M621.99,564.04c.52,6.76-6.35,3.09-10.45,2.95-4.83-.16-9.71.2-14.54.04-1.61-1.22,0-1.81,1.48-2,7.27-.91,16.11-.67,23.51-.99Z"/>
  <path class="cls-1" d="M734,608.04c.24.25-.16,3.02,0,3.99l-26-2,15.51-1.98c1.72.21,10.13-.39,10.49,0Z"/>
  <path class="cls-1" d="M465,599.04c.14.14.14,3.85,0,3.99-1.23,1.29-18.73-1.84-22-1-1.57-1.2-.02-1.83,1.47-2,2.69-.32,19.82-1.73,20.53-.99Z"/>
  <path class="cls-1" d="M37,564.04c.24.25-.16,3.02,0,3.99-8.82-1.34-17.4-.18-26-2l15.51-1.98c1.72.21,10.13-.39,10.49,0Z"/>
  <path class="cls-1" d="M117.49,567.03c-.41-.06-2.86-.98-2.49-1.99l24.99-1.01c.28,6.43-3.39,2.99-5.5,2.99-5.09,0-12.29.66-17,0Z"/>
  <path class="cls-1" d="M658,599.04v3.99s-23-1-23-1c-1.65-1.26.1-1.82,1.48-2,6.42-.83,14.83-.17,21.52-.99Z"/>
  <polygon class="cls-1" points="268.99 617.04 267.31 621.1 242 619.02 257.51 617.04 268.99 617.04"/>
  <path class="cls-1" d="M133,599.04c.14.14.14,3.85,0,3.99-1.22,1.29-17.83-1.72-21-1-1.57-1.2-.02-1.82,1.47-2,2.56-.3,18.85-1.7,19.53-.99Z"/>
  <path class="cls-1" d="M741.99,564.04c.3,2.34-.07,3.64-2.53,4.04l-22.46-2.05,14.51-1.98h10.49Z"/>
  <path class="cls-1" d="M800.99,599.04c.23.24.11,2.3-.44,3.05-2.13,2.93-17.44-1.34-21.55-.06-1.58-1.21,0-1.82,1.47-2,2.41-.29,19.8-1.72,20.52-.99Z"/>
  <path class="cls-1" d="M540,599.04c.14.14.14,3.85,0,3.99-1.21,1.27-17.84-1.9-21-1.01.4-1.88,1.97-1.81,3.47-2.02,2.41-.33,16.92-1.61,17.53-.97Z"/>
  <path class="cls-1" d="M333.99,564.04c.3,2.34-.07,3.64-2.53,4.04l-22.47-2.05,15.51-1.98h9.49Z"/>
  <path class="cls-1" d="M394,599.04c.14.14.14,3.85,0,3.99-1.21,1.27-17.84-1.91-21-1-1.58-1.21,0-1.82,1.47-2,2.43-.3,18.85-1.7,19.53-.99Z"/>
  <path class="cls-1" d="M34.49,573.03c.28-.04,1.13-1.51,1.49-1,.15,2.24.36,4.85-2.48,5.03l-20.5-2.04,6.5-1.99c4.74-.46,10.42.63,15,0Z"/>
  <path class="cls-1" d="M7.49,620.03l-7.49-1.99c9.42.19,18.63-.95,28-1.01v3H7.49Z"/>
  <path class="cls-1" d="M262.99,572.04c.76.91-.15,5.5-2.52,5.05-5.97-2.15-13.26.65-18.47-2.56l20.99-2.49Z"/>
</svg>