<?xml version="1.0" encoding="UTF-8"?>
<svg id="Layer_1" data-name="Layer 1" xmlns="http://www.w3.org/2000/svg" viewBox="0 0 954.01 879.01">
  <defs>
    <style>
      .cls-1 {
        fill: #d3393a;
      }

      .cls-2 {
        fill: #fecc19;
      }
    </style>
  </defs>
  <path class="cls-1" d="M653.03,3.83c4.82,3.57,94.06-1.36,119.39,5.76,145.5,40.88,172.23,240.93,42.31,320.61l-31.83,17.06c8.79,5.35,18.68,8.71,27.59,13.82,238.72,136.8,163.26,487.99-105.62,517.94l-553.37-.08.93-3.77,9.28-4.81c57.97-65.84,114.58-132.13,172.52-198.24,72.74-83.01,148.9-166.15,221.01-251.37,2.09-2.47,1.52-7.05,3.63-9.54,24.46-28.98,51.64-55.91,75.34-85.56h-156.2L653.03,3.83Z"/>
  <path class="cls-2" d="M152.44,875.16l114.8-308.64H0L260.09.46,651.84.02c2.39-.36.66,3.41,1.19,3.8l-175.02,321.81h156.2c-23.71,29.65-47.32,58.9-71.78,87.88-2.11,2.49-5.09,4.76-7.18,7.23-72.11,85.21-148.27,168.36-221.01,251.37-57.94,66.12-114.55,132.4-172.52,198.24l-9.28,4.81Z"/>
</svg>
